<svg xmlns="http://www.w3.org/2000/svg" version="1.1" x="0" y="0" viewBox="0 0 48 48" enable-background="new 0 0 48 48" xml:space="preserve"><style type="text/css">
	.st0{fill:#00aaff;}
</style><path d="m 40.970563,7.0294373 a 4,4 0 0 0 -5.656855,0 L 24,18.343146 12.686292,7.0294373 a 4,4 0 0 0 -5.6568547,0 4,4 0 0 0 0,5.6568547 L 18.343146,24 7.0294373,35.313708 a 4,4 0 0 0 0,5.656855 4,4 0 0 0 5.6568547,0 L 24,29.656854 35.313708,40.970563 a 4,4 0 0 0 5.656855,0 4,4 0 0 0 0,-5.656855 L 29.656854,24 40.970563,12.686292 a 4,4 0 0 0 0,-5.6568547 z" class="st0"/>
</svg>