<svg xmlns="http://www.w3.org/2000/svg" version="1.1" x="0px" y="0px" width="115px" height="115px" viewBox="0 0 115 115" xml:space="preserve"><style type="text/css">
	.st0{fill:#9947fe;}
</style><path class="st0" d="M57.538 30.235 16.497 64.069c0 .048-.012.118-.036.214-.023.095-.036.164-.036.213v34.261c0 1.237.453 2.309 1.357 3.212.904 .904 1.975 1.358 3.212 1.358h27.408V75.916h18.275v27.41h27.408c1.237 0 2.309-.453 3.212-1.358.905-.901 1.358-1.974 1.358-3.211V64.496c0-.19-.026-.333-.072-.426L57.538 30.235zM114.281 56.36 98.65 43.369V14.248c0-.665-.214-1.213-.643-1.641-.426-.428-.973-.642-1.64-.642h-13.704c-.666 0-1.213.214-1.642.642-.427.429-.641.977-.641 1.642v13.919l-17.415-14.561c-1.521-1.237-3.329-1.855-5.423-1.855-2.093 0-3.902.619-5.424 1.856L0.793 56.36c-.475.38-.736.892-.785 1.534-.048.642 .118 1.203.5 1.679l4.426 5.282c0.382.428 .881.69 1.499.786 .572.048 1.143-.119 1.714-.499L57.538 23.955l49.393 41.186c0.382.332 .881.498 1.499.498h0.215c0.618-.094 1.116-.357 1.499-.784l4.426-5.281c0.381-.476.548-1.036.498-1.679C115.017 57.252 114.756 56.741 114.281 56.36z"/></svg>