<svg xmlns="http://www.w3.org/2000/svg" version="1.1" x="0px" y="0px" width="120" height="126" viewBox="0 0 1489 1567" xml:space="preserve">
  <style type="text/css">.st0{fill:#9947fe;}</style>
  <path fill="#252525" d="m 1489,823 q 0,-186 -86,-349 -86,-163 -240,-267 -12,-10 -28,-6 -18,4 -25,16 l -90,131 q -10,12 -6,27.5 4,15.5 16,25.5 106,72 164.5,182.5 58.5,110.5 58.5,239.5 0,104 -39.5,197.5 -39.5,93.5 -108.5,162 -69,68.5 -162,108.5 -93,40 -197,40 -104,0 -197.5,-40 Q 455,1251 385,1182.5 315,1114 275.5,1021 236,928 236,823 236,694 295,583.5 354,473 459,401 q 14,-10 16,-24 4,-16 -6,-29 L 381,217 Q 371,205 355.5,202 340,199 326,207 172,311 86,474 0,637 0,823 q 0,154 58.5,289 58.5,135 160,236.5 101.5,101.5 237.5,160 136,58.5 290,58.5 154,0 289,-58.5 135,-58.5 236,-160 Q 1372,1247 1430.5,1112 1489,977 1489,823 Z M 862,743 862,39 Q 862,23 851,11.5 840,0 823,0 L 666,0 Q 650,0 638.5,11.5 627,23 627,39 l 0,704 q 0,16 11,27.5 11,11.5 28,11.5 l 157,0 q 16,0 27.5,-11 11.5,-11 11.5,-28 z"/>
</svg>