<svg xmlns="http://www.w3.org/2000/svg" version="1.1" x="0" y="0" viewBox="0 0 96 96" xml:space="preserve"><style type="text/css">
	.st0{fill:#825db4;}
</style><path class="st0" d="M60.5 18c-2.8 0-5 2-5 4.4v12c0 2.4 2.2 4.4 5 4.4 2.8 0 5-2 5-4.4v-12C65.5 20 63.3 18 60.5 18zM18 26.3v4.2h35v-4.2H18zM68 26.3v4.2h10v-4.2H68zM35.5 38c-2.8 0-5 2-5 4.4v12c0 2.4 2.2 4.4 5 4.4 2.8 0 5-2 5-4.4v-12C40.5 40 38.3 38 35.5 38zM18 46.3v4.2h10v-4.2H18zM43 46.3v4.2h35v-4.2H43zM60.5 57.2c-2.8 0-5 2-5 4.4v12c0 2.4 2.2 4.4 5 4.4 2.8 0 5-2 5-4.4v-12C65.5 59.1 63.3 57.2 60.5 57.2zM18 65.5v4.2h35v-4.2H18zM68 65.5v4.2h10v-4.2H68z"/></svg>